<mxfile host="app.diagrams.net" modified="2021-06-07T12:23:15.498Z" agent="5.0 (Macintosh; Intel Mac OS X 10_15_6) AppleWebKit/537.36 (KHTML, like Gecko) Chrome/91.0.4472.77 Safari/537.36" etag="qn4ifhP-8UQ4vtvh3OGX" version="14.7.3" type="github">
  <diagram id="vND71lBDzILibV6Dav3H" name="Page-1">
    <mxGraphModel dx="1426" dy="704" grid="1" gridSize="10" guides="1" tooltips="1" connect="1" arrows="1" fold="1" page="1" pageScale="1" pageWidth="827" pageHeight="1169" math="0" shadow="0">
      <root>
        <mxCell id="0" />
        <mxCell id="1" parent="0" />
        <mxCell id="9gEw9Mo14xb1F1GqbIKO-8" style="edgeStyle=orthogonalEdgeStyle;rounded=0;orthogonalLoop=1;jettySize=auto;html=1;entryX=0;entryY=0.5;entryDx=0;entryDy=0;" edge="1" parent="1" source="9gEw9Mo14xb1F1GqbIKO-1" target="9gEw9Mo14xb1F1GqbIKO-3">
          <mxGeometry relative="1" as="geometry" />
        </mxCell>
        <mxCell id="9gEw9Mo14xb1F1GqbIKO-1" value="hchan.buf" style="rounded=0;whiteSpace=wrap;html=1;" vertex="1" parent="1">
          <mxGeometry x="40" y="60" width="120" height="60" as="geometry" />
        </mxCell>
        <mxCell id="9gEw9Mo14xb1F1GqbIKO-3" value="a" style="whiteSpace=wrap;html=1;aspect=fixed;" vertex="1" parent="1">
          <mxGeometry x="370" y="60" width="50" height="50" as="geometry" />
        </mxCell>
        <mxCell id="9gEw9Mo14xb1F1GqbIKO-4" value="b" style="whiteSpace=wrap;html=1;aspect=fixed;" vertex="1" parent="1">
          <mxGeometry x="420" y="60" width="50" height="50" as="geometry" />
        </mxCell>
        <mxCell id="9gEw9Mo14xb1F1GqbIKO-5" value="c" style="whiteSpace=wrap;html=1;aspect=fixed;" vertex="1" parent="1">
          <mxGeometry x="470" y="60" width="50" height="50" as="geometry" />
        </mxCell>
        <mxCell id="9gEw9Mo14xb1F1GqbIKO-6" value="d" style="whiteSpace=wrap;html=1;aspect=fixed;" vertex="1" parent="1">
          <mxGeometry x="520" y="60" width="50" height="50" as="geometry" />
        </mxCell>
        <mxCell id="9gEw9Mo14xb1F1GqbIKO-7" value="..." style="whiteSpace=wrap;html=1;aspect=fixed;" vertex="1" parent="1">
          <mxGeometry x="570" y="60" width="50" height="50" as="geometry" />
        </mxCell>
        <mxCell id="9gEw9Mo14xb1F1GqbIKO-30" style="edgeStyle=orthogonalEdgeStyle;rounded=0;orthogonalLoop=1;jettySize=auto;html=1;entryX=0;entryY=0.75;entryDx=0;entryDy=0;" edge="1" parent="1" source="9gEw9Mo14xb1F1GqbIKO-9" target="9gEw9Mo14xb1F1GqbIKO-28">
          <mxGeometry relative="1" as="geometry" />
        </mxCell>
        <mxCell id="9gEw9Mo14xb1F1GqbIKO-9" value="hchan.recvq" style="rounded=0;whiteSpace=wrap;html=1;" vertex="1" parent="1">
          <mxGeometry x="40" y="240" width="120" height="60" as="geometry" />
        </mxCell>
        <mxCell id="9gEw9Mo14xb1F1GqbIKO-31" style="edgeStyle=orthogonalEdgeStyle;rounded=0;orthogonalLoop=1;jettySize=auto;html=1;entryX=0;entryY=0.5;entryDx=0;entryDy=0;" edge="1" parent="1" source="9gEw9Mo14xb1F1GqbIKO-10" target="9gEw9Mo14xb1F1GqbIKO-22">
          <mxGeometry relative="1" as="geometry" />
        </mxCell>
        <mxCell id="9gEw9Mo14xb1F1GqbIKO-10" value="hchan.sendq" style="rounded=0;whiteSpace=wrap;html=1;" vertex="1" parent="1">
          <mxGeometry x="40" y="375" width="120" height="60" as="geometry" />
        </mxCell>
        <mxCell id="9gEw9Mo14xb1F1GqbIKO-12" value="Pointer *ArbitraryType" style="rounded=0;whiteSpace=wrap;html=1;" vertex="1" parent="1">
          <mxGeometry x="370" y="40" width="250" height="20" as="geometry" />
        </mxCell>
        <mxCell id="9gEw9Mo14xb1F1GqbIKO-13" value="g1" style="whiteSpace=wrap;html=1;aspect=fixed;" vertex="1" parent="1">
          <mxGeometry x="370" y="280" width="50" height="50" as="geometry" />
        </mxCell>
        <mxCell id="9gEw9Mo14xb1F1GqbIKO-14" value="g2" style="whiteSpace=wrap;html=1;aspect=fixed;" vertex="1" parent="1">
          <mxGeometry x="470" y="280" width="50" height="50" as="geometry" />
        </mxCell>
        <mxCell id="9gEw9Mo14xb1F1GqbIKO-15" value="g3" style="whiteSpace=wrap;html=1;aspect=fixed;" vertex="1" parent="1">
          <mxGeometry x="570" y="280" width="50" height="50" as="geometry" />
        </mxCell>
        <mxCell id="9gEw9Mo14xb1F1GqbIKO-17" value="" style="endArrow=classic;startArrow=classic;html=1;" edge="1" parent="1">
          <mxGeometry width="50" height="50" relative="1" as="geometry">
            <mxPoint x="424" y="304.5" as="sourcePoint" />
            <mxPoint x="470" y="304.5" as="targetPoint" />
          </mxGeometry>
        </mxCell>
        <mxCell id="9gEw9Mo14xb1F1GqbIKO-18" value="" style="endArrow=classic;startArrow=classic;html=1;" edge="1" parent="1">
          <mxGeometry width="50" height="50" relative="1" as="geometry">
            <mxPoint x="524" y="304.5" as="sourcePoint" />
            <mxPoint x="570" y="304.5" as="targetPoint" />
          </mxGeometry>
        </mxCell>
        <mxCell id="9gEw9Mo14xb1F1GqbIKO-22" value="g1" style="whiteSpace=wrap;html=1;aspect=fixed;" vertex="1" parent="1">
          <mxGeometry x="370" y="380" width="50" height="50" as="geometry" />
        </mxCell>
        <mxCell id="9gEw9Mo14xb1F1GqbIKO-23" value="g2" style="whiteSpace=wrap;html=1;aspect=fixed;" vertex="1" parent="1">
          <mxGeometry x="470" y="380" width="50" height="50" as="geometry" />
        </mxCell>
        <mxCell id="9gEw9Mo14xb1F1GqbIKO-24" value="g3" style="whiteSpace=wrap;html=1;aspect=fixed;" vertex="1" parent="1">
          <mxGeometry x="570" y="380" width="50" height="50" as="geometry" />
        </mxCell>
        <mxCell id="9gEw9Mo14xb1F1GqbIKO-25" value="" style="endArrow=classic;startArrow=classic;html=1;" edge="1" parent="1">
          <mxGeometry width="50" height="50" relative="1" as="geometry">
            <mxPoint x="424" y="404.5" as="sourcePoint" />
            <mxPoint x="470" y="404.5" as="targetPoint" />
          </mxGeometry>
        </mxCell>
        <mxCell id="9gEw9Mo14xb1F1GqbIKO-26" value="" style="endArrow=classic;startArrow=classic;html=1;" edge="1" parent="1">
          <mxGeometry width="50" height="50" relative="1" as="geometry">
            <mxPoint x="524" y="404.5" as="sourcePoint" />
            <mxPoint x="570" y="404.5" as="targetPoint" />
          </mxGeometry>
        </mxCell>
        <mxCell id="9gEw9Mo14xb1F1GqbIKO-28" value="waitq" style="rounded=0;whiteSpace=wrap;html=1;" vertex="1" parent="1">
          <mxGeometry x="370" y="260" width="250" height="20" as="geometry" />
        </mxCell>
        <mxCell id="9gEw9Mo14xb1F1GqbIKO-32" value="waitq" style="rounded=0;whiteSpace=wrap;html=1;" vertex="1" parent="1">
          <mxGeometry x="370" y="360" width="250" height="20" as="geometry" />
        </mxCell>
      </root>
    </mxGraphModel>
  </diagram>
</mxfile>
